*******************************************************************************
                 Raymond Dit It (2011) WEBRip - RadioResearch
*******************************************************************************

-------------------------------------------------------------------------------
                              General Information
-------------------------------------------------------------------------------
Type.................: Movie



Video Format.........: AVI
Video Bitrate........: 1352
Resolution...........: 640 x 360
Color................: 8 bit
FPS..................: 24.000
Source...............: WEB 16 x 9
Original Format......: NTSC
Genre................: Horror
IMDb Rating..........: 5.2
Movie Information....: http://www.imdb.com/title/tt1716760/

-------------------------------------------------------------------------------
                               Post Information
-------------------------------------------------------------------------------
Posted by............: RadioResearch
Posted on............: 5/3/2013

-------------------------------------------------------------------------------
                                 Release Notes
-------------------------------------------------------------------------------
SEEDBOX SUPPORTED!!

Mentally challenged Raymond Rourke gets blamed and framed by several kids after 
they accidentally kill his younger brother Bryce. Six years later, Raymond 
escapes from the state mental hospital he's been locked up in so he can exact a 
harsh revenge on the folks who killed his brother and set him up. 

Enjoy!
RadioResearch

General
Complete name                            : G:Raymond Dit It (2011) WEBRip-
RadioResearchRaymond Did It.avi
Format                                   : AVI
Format/Info                              : Audio Video Interleave
File size                                : 795 MiB
Duration                                 : 1h 22mn
Overall bit rate                         : 1 352 Kbps

Video
ID                                       : 0
Format                                   : mp43
Codec ID                                 : mp43
Duration                                 : 1h 22mn
Bit rate                                 : 1 212 Kbps
Width                                    : 640 pixels
Height                                   : 360 pixels
Display aspect ratio                     : 16:9
Frame rate                               : 24.000 fps
Bits/(Pixel*Frame)                       : 0.219
Stream size                              : 713 MiB (90%)

Audio
ID                                       : 1
Format                                   : MPEG Audio
Format version                           : Version 1
Format profile                           : Layer 3
Mode                                     : Joint stereo
Mode extension                           : MS Stereo
Codec ID                                 : 55
Codec ID/Hint                            : MP3
Duration                                 : 1h 22mn
Bit rate mode                            : Constant
Bit rate                                 : 128 Kbps
Channel(s)                               : 2 channels
Sampling rate                            : 44.1 KHz
Compression mode                         : Lossy
Stream size                              : 75.3 MiB (9%)
Alignment                                : Aligned on interleaves
Interleave, duration                     : 26 ms (0.63 video frame)
Writing library                          : LAME3.98.2

AVI FILE MD5 HASH: acc6acf11a585a6ee47b8f88b3e9416f



-------------------------------------------------------------------------------
Generated with Cool NFO Creator - http://fly.to/coolbeans
-------------------------------------------------------------------------------
